<?xml version="1.0" encoding="UTF-8" standalone="no" ?>
<!DOCTYPE svg PUBLIC "-//W3C//DTD SVG 1.1//EN" "http://www.w3.org/Graphics/SVG/1.1/DTD/svg11.dtd">
<svg xmlns="http://www.w3.org/2000/svg" xmlns:xlink="http://www.w3.org/1999/xlink" version="1.1" width="1280" height="1024" viewBox="0 0 1280 1024" xml:space="preserve">
<desc>Created with Fabric.js 5.3.0</desc>
<defs>
</defs>
<g transform="matrix(1 0 0 1 640 512)" id="background-logo"  >
<rect style="stroke: none; stroke-width: 0; stroke-dasharray: none; stroke-linecap: butt; stroke-dashoffset: 0; stroke-linejoin: miter; stroke-miterlimit: 4; fill: rgb(255,255,255); fill-opacity: 0; fill-rule: nonzero; opacity: 1;"  paint-order="stroke"  x="-640" y="-512" rx="0" ry="0" width="1280" height="1024" />
</g>
<g transform="matrix(1.9211538461538462 0 0 1.9211538461538462 640 400.87676192242276)" id="logo-logo"  >
<g style=""  paint-order="stroke"   >
		<g transform="matrix(1.7765411984174315 0 0 1.7765411984174315 -26.090487187444467 19.08545653167471)"  >
<path style="stroke: none; stroke-width: 1; stroke-dasharray: none; stroke-linecap: butt; stroke-dashoffset: 0; stroke-linejoin: miter; stroke-miterlimit: 4; fill: rgb(255,255,255); fill-rule: nonzero; opacity: 1;"  paint-order="stroke"  transform=" translate(-172.8138858, -160.7430418)" d="M 198.648449 174.2517484 C 197.1073957 189.5908526 184.139887 201.6104336 168.4014604 201.6104336 L 146.8073638 201.6104336 L 146.8073638 119.87565009999999 L 167.5911754 119.87565009999999 L 167.5911754 109.96840359999999 L 136.9001174 109.96840359999999 L 136.9001174 211.51767999999998 L 168.40146049999998 211.51767999999998 C 189.98746939999998 211.51767999999998 207.64200849999997 194.46269139999998 208.6563009 173.1233206 C 205.91599549999998 173.8768403 203.0351751 174.2875007 200.0588137 174.2875007 C 199.5858703 174.2875007 199.116555 174.2718543 198.6484491 174.2517484 Z M 173.7832044 110.3381718 L 173.7832044 120.3621235 C 187.99675309999998 122.911498 198.8204078 135.3588218 198.8204078 150.2952022 L 198.8204078 162.0156882 C 200.4207208 162.3468317 202.0770432 162.5226455 203.774031 162.5226455 C 205.47101880000002 162.5226455 207.1273413 162.34683180000002 208.72765420000002 162.0157638 L 208.72765420000002 150.2952022 C 208.72765420000002 129.8846357 193.4822014 112.9785521 173.78320430000002 110.3381718 Z" stroke-linecap="round" />
</g>
		<g transform="matrix(1.7765411984174315 0 0 1.7765411984174315 28.91202385070801 -31.42041106078696)"  >
<path style="stroke: none; stroke-width: 1; stroke-dasharray: none; stroke-linecap: butt; stroke-dashoffset: 0; stroke-linejoin: miter; stroke-miterlimit: 4; fill: rgb(255,255,255); fill-rule: nonzero; opacity: 1;"  paint-order="stroke"  transform=" translate(-203.7743336000001, -132.31371652600518)" d="M 236.242274 128.9726872 L 236.242274 104.19965789999999 C 236.242274 97.41231119999999 231.37338300000002 91.74613599999999 224.9459026 90.49533399999999 C 223.1368959 89.27763879999999 220.41201 88.48231989999998 218.16037 88.48231989999998 C 214.4344949 88.48231989999998 211.4140667 88.48231989999998 211.4140667 93.32823269999997 C 211.4140667 98.17422109999997 214.4344949 98.17422109999997 218.16037 98.17422109999997 C 220.0906927 98.17422109999997 222.3687124 97.58880529999996 224.1208027 96.65531459999997 C 227.5181798 97.48736849999997 230.05024500000002 100.54952039999996 230.05024500000002 104.19965799999997 L 230.05024500000002 128.97268729999996 C 229.0205329 128.99906689999997 228.19263630000003 129.83792359999995 228.19263630000003 130.87406049999996 L 228.19263630000003 141.81986259999996 C 228.19263630000003 155.59637139999995 216.72438170000004 166.74489589999996 202.83267940000002 166.22002469999995 C 189.61875940000002 165.72077719999996 179.35603060000003 154.44368039999995 179.35603060000003 141.22031209999994 L 179.35603060000003 130.87406039999993 C 179.35603060000003 129.83792349999993 178.52813390000003 128.99906679999992 177.49842190000004 128.97268719999994 L 177.49842190000004 104.19965789999993 C 177.49842190000004 100.54952029999994 180.03010920000003 97.48729279999993 183.42741070000005 96.65523889999993 C 185.17950100000004 97.58872959999992 187.45752060000007 98.17422099999993 189.38784340000007 98.17422099999993 C 193.11371850000006 98.17422099999993 196.13414670000006 98.17422099999993 196.13414670000006 93.32823259999994 C 196.13414670000006 88.48231979999994 193.11371850000006 88.48231979999994 189.38784340000007 88.48231979999994 C 187.13627890000006 88.48231979999994 184.41139310000005 89.27763879999995 182.60238640000006 90.49533389999995 C 176.17528400000006 91.74606029999995 171.30639300000007 97.41231109999995 171.30639300000007 104.19965779999995 L 171.30639300000007 128.97268709999994 C 170.27668090000006 128.99906669999996 169.44878430000009 129.83792339999994 169.44878430000009 130.87406029999994 L 169.44878430000009 141.08969889999995 C 169.44878430000009 159.76760079999994 184.0657371000001 175.57564229999994 202.73540000000008 176.12968979999994 C 222.13492420000009 176.70535499999994 238.09988290000007 161.09172139999993 238.09988290000007 141.81986239999992 L 238.09988290000007 130.8740602999999 C 238.09988290000007 129.8379233999999 237.27198620000007 128.9990666999999 236.24227420000008 128.97268709999992 Z" stroke-linecap="round" />
</g>
		<g transform="matrix(1.7765411984174315 0 0 1.7765411984174315 28.912023584226574 -36.92041033279037)"  >
<path style="stroke: none; stroke-width: 1; stroke-dasharray: none; stroke-linecap: butt; stroke-dashoffset: 0; stroke-linejoin: miter; stroke-miterlimit: 4; fill: rgb(149,201,188); fill-rule: nonzero; opacity: 1;"  paint-order="stroke"  transform=" translate(-203.77433344999997, -129.2178135)" d="M 182.4451667 93.4438797 C 182.46837169999998 93.42007 182.4880997 93.3964871 182.51251409999998 93.372753 C 182.67540259999998 93.214173 182.86708939999997 93.0583896 183.07986479999997 92.905403 C 183.11932079999997 92.8769826 183.15892809999997 92.84924240000001 183.19989579999998 92.82112430000001 C 183.42060779999997 92.66987610000001 183.65983839999998 92.5228608 183.92023319999998 92.3819679 C 183.95946249999997 92.36072820000001 184.00043029999998 92.3409245 184.04041539999997 92.3199871 C 184.59756199999998 92.02860190000001 185.22696899999997 91.76722450000001 185.89469829999996 91.55233270000001 C 185.94375379999997 91.5365352 185.99107079999996 91.51990620000001 186.04050429999995 91.5046377 C 186.36061219999996 91.4056952 186.68752299999994 91.3198292 187.01813739999994 91.2452255 C 187.07996699999995 91.23124200000001 187.14081399999995 91.21809 187.20287029999994 91.2050136 C 187.53529879999994 91.1351719 187.86893669999995 91.0778019 188.20181869999993 91.037212 C 188.25231029999992 91.0310895 188.30159259999994 91.02746139999999 188.35200869999994 91.0220192 C 188.70151969999995 90.98430160000001 189.04898989999995 90.9593582 189.38784319999993 90.9593582 C 189.83682579999993 90.9593582 190.24801519999994 90.96253279999999 190.63418559999994 90.9707717 C 190.66668769999993 90.971452 190.70342259999993 90.9716787 190.73547119999995 90.9725102 C 191.10266939999994 90.9815806 191.43736549999994 90.9985119 191.74953689999995 91.0233042 C 191.78921969999996 91.0264032 191.83237949999994 91.0289732 191.87123079999995 91.03245009999999 C 192.17025019999994 91.0592076 192.44145379999995 91.09775669999999 192.69088859999994 91.14749239999999 C 192.72762349999994 91.15482429999999 192.76602139999994 91.162005 192.80169809999992 91.1699415 C 193.04183579999992 91.2231542 193.25816369999993 91.2911819 193.45287399999992 91.3745536 C 193.48265499999994 91.3873277 193.51236039999992 91.4009332 193.54108319999992 91.4144632 C 193.7296709999999 91.5034283 193.8976236999999 91.6097782 194.0435808999999 91.7369899 C 194.06391359999992 91.7547527 194.0830368999999 91.7746319 194.10261379999992 91.7932261 C 194.2450183999999 91.9285256 194.36905549999992 92.0837798 194.4706434999999 92.2665475 C 194.48167909999992 92.2864267 194.49090059999992 92.3094805 194.5014826999999 92.3299644 C 194.6019368999999 92.52429679999999 194.68493059999992 92.742212 194.74532409999992 92.9956529 C 194.7484986999999 93.0087293 194.75023719999993 93.0244513 194.7532606999999 93.03775449999999 C 194.81433439999992 93.3061614 194.8566626999999 93.60548309999999 194.87775129999991 93.94751109999999 C 194.8896938999999 93.75370779999999 194.89596759999992 93.54818869999998 194.89596759999992 93.32853499999999 C 194.89596759999992 89.89570799999998 193.48038749999992 89.72095249999998 189.38784329999993 89.72095249999998 C 186.01125249999993 89.72095249999998 181.86065799999992 91.71038369999998 181.86065799999992 93.32853499999999 C 181.86065799999992 93.53065269999999 181.92551099999991 93.7385906 182.04546649999992 93.94773789999999 C 182.14191459999992 93.77963399999999 182.28242949999992 93.6111521 182.44516679999992 93.4438797 Z M 218.1602188 89.7209525 C 214.0676746 89.7209525 212.6526992 89.895708 212.6526992 93.328535 C 212.6526992 93.54826440000001 212.6588973 93.7537835 212.6708399 93.9476623 C 212.8452931 91.11325190000001 214.32973230000002 90.95935820000001 218.1602188 90.95935820000001 C 221.1149625 90.95935820000001 224.6623784 92.48279990000002 225.5025956 93.94773780000001 C 225.62255100000002 93.73859050000002 225.6874041 93.53065260000001 225.6874041 93.32853490000001 C 225.6874041 91.71038360000001 221.5368096 89.7209524 218.1602188 89.7209524 Z M 202.785967 167.4581281 C 189.1834579 166.94353660000002 178.1176247 155.1738439 178.1176247 141.22061440000002 L 178.1176247 130.8743627 C 178.1176247 130.5061063 177.8176983 130.2061799 177.44944189999998 130.2061799 L 171.35537269999998 130.2061799 C 170.98711629999997 130.2061799 170.68718989999996 130.5061063 170.68718989999996 130.8743627 L 170.68718989999996 131.4445857 L 176.21103609999997 131.4445857 C 176.57929249999998 131.4445857 176.87921889999998 131.7445121 176.87921889999998 132.11276850000002 L 176.87921889999998 142.45902020000003 C 176.87921889999998 156.41224970000002 187.9450521 168.18194240000003 201.5475612 168.69653390000002 C 201.8777221 168.70862770000002 202.20788299999998 168.71467460000002 202.5356252 168.71467460000002 C 209.9241097 168.71467460000002 216.5735114 165.557284 221.259408 160.54273820000003 C 216.6720003 164.82953920000003 210.533184 167.47626880000004 203.774031 167.47626880000004 C 203.44628880000002 167.47626880000004 203.1161279 167.47022190000004 202.785967 167.45812810000004 Z M 236.1932941 130.2061799 L 230.0992249 130.2061799 C 229.7309685 130.2061799 229.43104209999998 130.5061063 229.43104209999998 130.8743627 L 229.43104209999998 131.4445857 L 234.9548883 131.4445857 C 235.3231447 131.4445857 235.6230711 131.7445121 235.6230711 132.11276850000002 L 235.6230711 143.0582683 C 235.6230711 151.865961 232.1569861 159.87440420000001 226.52565620000001 165.80928870000002 C 232.88412630000002 159.7759909 236.861477 151.25628190000003 236.861477 141.81986250000003 L 236.861477 130.87436270000003 C 236.861477 130.50610630000003 236.5615506 130.20617990000002 236.1932942 130.20617990000002 Z" stroke-linecap="round" />
</g>
</g>
</g>
<g transform="matrix(1.9211538461538462 0 0 1.9211538461538462 642.4020077935222 707.3284173164138)" id="text-logo"  >
<g style=""  paint-order="stroke"   >
		<g transform="matrix(1 0 0 1 0 0)" id="text-logo-path-0"  >
<path style="stroke: none; stroke-width: 0; stroke-dasharray: none; stroke-linecap: butt; stroke-dashoffset: 0; stroke-linejoin: miter; stroke-miterlimit: 4; fill: rgb(255,255,255); fill-rule: nonzero; opacity: 1;"  paint-order="stroke"  transform=" translate(-102.63, 18.9)" d="M 16.58 -37.8 L 3.46 -37.8 L 3.46 0 L 16.58 0 C 28.24 0 36.34 -7.29 36.34 -18.9 C 36.34 -30.51 28.24 -37.8 16.58 -37.8 Z M 12.1 -29.7 L 16.58 -29.7 C 23.11 -29.7 27.7 -25.7 27.7 -18.85 C 27.7 -11.99 23.11 -8.1 16.58 -8.1 L 12.1 -8.1 Z M 64.21 0.86 C 75.87 0.86 83.97 -7.34 83.97 -18.95 C 83.97 -30.56 75.82 -38.66 64.21 -38.66 C 52.6 -38.66 44.44 -30.56 44.44 -18.95 C 44.44 -7.29 52.54 0.86 64.21 0.86 Z M 64.21 -7.24 C 57.67 -7.24 53.08 -12.04 53.08 -18.9 C 53.08 -25.76 57.67 -30.56 64.21 -30.56 C 70.74 -30.56 75.33 -25.76 75.33 -18.9 C 75.33 -12.04 70.74 -7.24 64.21 -7.24 Z M 102.33 -37.8 L 93.69 -37.8 L 93.69 0 L 102.33 0 L 102.33 -9.77 L 105.14 -13.28 L 115.29 0 L 126.09 0 L 110.32 -19.93 L 124.47 -37.8 L 114.21 -37.8 L 102.33 -21.87 Z M 153.31 -37.8 L 144.13 -37.8 L 131.17 0 L 140.35 0 L 142.99 -8.1 L 154.44 -8.1 L 157.09 0 L 166.27 0 Z M 151.74 -16.2 L 145.69 -16.2 L 148.72 -25.49 Z M 183.28 -37.8 L 174.64 -37.8 L 174.64 0 L 201.8 0 L 201.8 -8.1 L 183.28 -8.1 Z" stroke-linecap="round" />
</g>
</g>
</g>
<g transform="matrix(1.9211538461538462 0 0 1.9211538461538462 637.7666586538462 799.7275410856446)" id="tagline-449cc72a-612e-47bf-bff1-420a2d5c63a2-logo"  >
<g style=""  paint-order="stroke"   >
		<g transform="matrix(1 0 0 1 0 0)" id="tagline-449cc72a-612e-47bf-bff1-420a2d5c63a2-logo-path-0"  >
<path style="stroke: none; stroke-width: 0; stroke-dasharray: none; stroke-linecap: butt; stroke-dashoffset: 0; stroke-linejoin: miter; stroke-miterlimit: 4; fill: rgb(106,146,136); fill-rule: nonzero; opacity: 1;"  paint-order="stroke"  transform=" translate(-166.125, 10.725)" d="M 5.28 -21.42 L 9.09 -12.6 L 12.93 -21.42 L 18.15 -21.42 L 11.49 -8.34 L 11.49 0 L 6.66 0 L 6.66 -8.19 L 0 -21.42 L 5.28 -21.42 Z M 52.56 -10.74 L 52.56 -10.74 C 52.56 -9.09 52.38 -7.56 51.99 -6.24 C 51.6 -4.89 51.03 -3.72 50.25 -2.73 C 49.47 -1.74 48.48 -0.99 47.25 -0.48 C 46.02 0.03 44.55 0.3 42.87 0.3 L 42.87 0.3 C 41.22 0.3 39.78 0.03 38.55 -0.51 C 37.32 -1.02 36.33 -1.77 35.55 -2.76 C 34.74 -3.72 34.17 -4.89 33.78 -6.24 C 33.39 -7.59 33.18 -9.12 33.18 -10.77 L 33.18 -10.77 C 33.18 -12.99 33.54 -14.91 34.23 -16.56 C 34.92 -18.21 35.97 -19.47 37.41 -20.4 C 38.85 -21.3 40.68 -21.75 42.9 -21.75 L 42.9 -21.75 C 45.15 -21.75 46.98 -21.3 48.39 -20.4 C 49.8 -19.47 50.85 -18.21 51.54 -16.56 C 52.23 -14.91 52.56 -12.96 52.56 -10.74 Z M 38.28 -10.74 L 38.28 -10.74 C 38.28 -9.24 38.43 -7.95 38.76 -6.87 C 39.06 -5.79 39.54 -4.95 40.23 -4.38 C 40.92 -3.81 41.79 -3.51 42.87 -3.51 L 42.87 -3.51 C 43.98 -3.51 44.85 -3.81 45.54 -4.38 C 46.2 -4.95 46.68 -5.79 47.01 -6.87 C 47.31 -7.95 47.46 -9.24 47.46 -10.74 L 47.46 -10.74 C 47.46 -12.99 47.1 -14.76 46.41 -16.05 C 45.72 -17.34 44.55 -17.97 42.9 -17.97 L 42.9 -17.97 C 41.79 -17.97 40.92 -17.67 40.23 -17.1 C 39.54 -16.53 39.06 -15.69 38.76 -14.61 C 38.43 -13.53 38.28 -12.24 38.28 -10.74 Z M 86.73 -21.42 L 86.73 -7.56 C 86.73 -6.09 86.43 -4.74 85.8 -3.57 C 85.17 -2.37 84.21 -1.41 82.95 -0.75 C 81.69 -0.06 80.1 0.3 78.21 0.3 L 78.21 0.3 C 75.48 0.3 73.41 -0.42 72 -1.89 C 70.56 -3.33 69.84 -5.25 69.84 -7.62 L 69.84 -7.62 L 69.84 -21.42 L 74.7 -21.42 L 74.7 -8.31 C 74.7 -6.54 75 -5.31 75.63 -4.59 C 76.23 -3.87 77.13 -3.51 78.3 -3.51 L 78.3 -3.51 C 79.14 -3.51 79.83 -3.69 80.34 -4.02 C 80.85 -4.35 81.24 -4.89 81.51 -5.61 C 81.75 -6.33 81.87 -7.23 81.87 -8.34 L 81.87 -8.34 L 81.87 -21.42 L 86.73 -21.42 Z M 104.82 -21.42 L 111.06 -21.42 C 112.89 -21.42 114.39 -21.18 115.59 -20.73 C 116.79 -20.25 117.69 -19.53 118.29 -18.6 C 118.86 -17.64 119.16 -16.44 119.16 -15 L 119.16 -15 C 119.16 -14.01 119.01 -13.17 118.71 -12.45 C 118.38 -11.7 117.96 -11.1 117.42 -10.59 C 116.88 -10.08 116.28 -9.66 115.59 -9.33 L 115.59 -9.33 L 121.47 0 L 116.04 0 L 111.51 -8.22 L 109.68 -8.22 L 109.68 0 L 104.82 0 L 104.82 -21.42 Z M 110.85 -17.7 L 110.85 -17.7 L 109.68 -17.7 L 109.68 -11.91 L 110.88 -11.91 C 111.63 -11.91 112.23 -12.03 112.74 -12.24 C 113.25 -12.45 113.61 -12.81 113.88 -13.26 C 114.15 -13.71 114.27 -14.25 114.27 -14.88 L 114.27 -14.88 C 114.27 -15.57 114.15 -16.11 113.91 -16.53 C 113.67 -16.92 113.31 -17.22 112.8 -17.43 C 112.29 -17.61 111.66 -17.7 110.85 -17.7 Z M 174.87 -21.42 L 174.87 0 L 169.98 0 L 169.98 -9.24 L 162.84 -9.24 L 162.84 0 L 157.98 0 L 157.98 -21.42 L 162.84 -21.42 L 162.84 -13.02 L 169.98 -13.02 L 169.98 -21.42 L 174.87 -21.42 Z M 204.87 -3.75 L 204.87 0 L 193.11 0 L 193.11 -21.42 L 204.87 -21.42 L 204.87 -17.7 L 197.97 -17.7 L 197.97 -12.99 L 204.39 -12.99 L 204.39 -9.27 L 197.97 -9.27 L 197.97 -3.75 L 204.87 -3.75 Z M 239.82 0 L 234.57 0 L 233.34 -5.1 L 226.41 -5.1 L 225.15 0 L 219.87 0 L 226.71 -21.51 L 232.95 -21.51 L 239.82 0 Z M 232.29 -8.91 L 230.88 -13.89 C 230.76 -14.31 230.64 -14.76 230.52 -15.21 C 230.4 -15.66 230.28 -16.14 230.19 -16.65 C 230.07 -17.16 229.95 -17.67 229.86 -18.18 L 229.86 -18.18 C 229.71 -17.37 229.56 -16.62 229.38 -15.9 C 229.2 -15.15 229.02 -14.49 228.87 -13.89 L 228.87 -13.89 L 227.49 -8.91 L 232.29 -8.91 Z M 268.5 0 L 255.69 0 L 255.69 -21.42 L 260.55 -21.42 L 260.55 -3.75 L 268.5 -3.75 L 268.5 0 Z M 293.67 -17.64 L 293.67 0 L 288.81 0 L 288.81 -17.64 L 283.62 -17.64 L 283.62 -21.42 L 298.86 -21.42 L 298.86 -17.64 L 293.67 -17.64 Z M 332.25 -21.42 L 332.25 0 L 327.36 0 L 327.36 -9.24 L 320.22 -9.24 L 320.22 0 L 315.36 0 L 315.36 -21.42 L 320.22 -21.42 L 320.22 -13.02 L 327.36 -13.02 L 327.36 -21.42 L 332.25 -21.42 Z" stroke-linecap="round" />
</g>
</g>
</g>
</svg>