<?xml version="1.0" encoding="UTF-8"?>
<svg version="1.1" xmlns="http://www.w3.org/2000/svg" width="1280" height="1280">
<path d="M0 0 C2.15054879 0.27258924 4.30235183 0.53319745 6.45452881 0.79260254 C94.26393282 11.48480565 178.49647089 39.72407097 305.39642334 118.00598145 C307.77369566 119.83317065 310.20989817 121.5746825 312.64837646 123.31896973 C325.6588193 132.73493586 338.10317316 142.97433005 350.27337646 153.44396973 C350.82050293 153.91173828 351.36762939 154.37950684 351.93133545 154.8614502 C363.96450567 165.28217222 375.35519001 176.42085017 386.58782959 187.69055176 C388.54696302 189.65512173 390.5114929 191.61418421 392.47650146 193.57287598 C398.53797429 199.63081441 404.50734101 205.69038925 410.02337646 212.25646973 C411.04448611 213.42517436 412.0679319 214.59184194 413.09368896 215.75646973 C445.71751658 253.06577494 473.28202795 293.78538962 497.02337646 337.25646973 C497.50516357 338.13206543 497.98695068 339.00766113 498.4833374 339.90979004 C534.09734045 404.89460326 556.15757953 478.02751555 571.22650146 616.95178223 C571.23352292 618.42159556 571.24060974 619.89140858 571.24775696 621.36122131 C571.26716524 626.03464189 571.27219121 630.70801291 571.27337646 635.38146973 C571.27381832 636.17753757 571.27426018 636.97360542 571.27471542 637.79379654 C571.28147895 661.02285912 571.14344996 684.12347699 568.27661133 707.20892334 C568.01052265 709.36040003 567.75635665 711.51308485 567.50335693 713.6661377 C558.97705574 785.34718751 538.30469847 854.64501786 506.43597412 919.38000488 C505.12220778 922.05522007 503.826403 924.73833107 502.53509521 927.42443848 C496.05866766 940.7789325 488.63791035 953.52397045 481.02337646 966.25646973 C480.54255615 967.0685791 480.06173584 967.88068848 479.56634521 968.71740723 C462.73579439 997.14018182 443.11986204 1024.05287939 421.65618896 1049.15100098 C419.1399943 1052.10067322 416.70444677 1055.1111739 414.27337646 1058.13146973 C411.28137895 1061.81024247 408.1917513 1065.22070126 404.77459717 1068.50427246 C403.1625927 1070.11717585 401.70910001 1071.77483807 400.24603271 1073.52209473 C394.84358951 1079.73675847 388.94615424 1085.48240365 383.11737061 1091.29284668 C381.09074666 1093.3141124 379.06952099 1095.34066546 377.04876709 1097.36779785 C370.87648716 1103.54326248 364.70688102 1109.62919665 358.02337646 1115.25646973 C356.41569274 1116.7109249 354.81097932 1118.16867868 353.21087646 1119.63146973 C348.94592338 1123.47575217 344.57476797 1127.15173878 340.10931396 1130.76037598 C337.8739783 1132.56845128 335.65149441 1134.38759736 333.43743896 1136.22131348 C318.01959973 1148.95216127 301.88958508 1160.4654924 285.27337646 1171.56896973 C284.58035431 1172.03310272 283.88733215 1172.49723572 283.17330933 1172.97543335 C273.62117285 1179.36166879 263.92896034 1185.43435064 254.02337646 1191.25646973 C253.14036865 1191.77926514 252.25736084 1192.30206055 251.34759521 1192.84069824 C194.48700169 1226.34028139 103.57857883 1274.8202244 35.02337646 1271.25646973 C34.37376953 1271.0776123 33.7241626 1270.89875488 33.05487061 1270.71447754 C30.36149301 1270.10724567 28.24405532 1270.49711218 25.51947021 1270.92834473 C24.40741211 1271.09688965 23.295354 1271.26543457 22.14959717 1271.43908691 C20.93231934 1271.62632324 19.7150415 1271.81355957 18.46087646 1272.00646973 C-39.63549074 1280.24790524 -99.37437787 1280.21785986 -157.32427979 1270.7947998 C-158.0104689 1270.68547623 -158.69665802 1270.57615265 -159.40364075 1270.46351624 C-161.25574353 1270.16683356 -163.1063586 1269.8609053 -164.95684814 1269.55432129 C-167.70739454 1269.28302477 -169.41586398 1269.29717942 -171.97662354 1270.25646973 C-172.30662354 1270.58646973 -172.63662354 1270.91646973 -172.97662354 1271.25646973 C-226.44687055 1270.2945711 -288.62412676 1243.10953351 -336.02154541 1220.65393066 C-339.07847007 1219.20830635 -342.14433289 1217.78286105 -345.21099854 1216.35803223 C-358.56184601 1210.10736132 -371.47417363 1203.30455357 -384.20318604 1195.87121582 C-386.89943039 1194.30141299 -389.60818826 1192.75555779 -392.32037354 1191.21350098 C-423.90651674 1173.09485619 -453.71860278 1151.36319258 -481.33355713 1127.66125488 C-482.99532791 1126.2404779 -484.66646331 1124.83144219 -486.33990479 1123.42443848 C-500.57819577 1111.4139902 -513.85750799 1098.46654994 -527.03912354 1085.31896973 C-527.62793304 1084.73283905 -528.21674255 1084.14670837 -528.82339478 1083.54281616 C-535.09800734 1077.28987302 -541.24060617 1071.01412296 -546.97662354 1064.25646973 C-548.43107871 1062.648786 -549.88883248 1061.04407258 -551.35162354 1059.44396973 C-556.08233856 1054.1947109 -560.54746047 1048.76087977 -564.97662354 1043.25646973 C-565.89036795 1042.13511671 -566.80444493 1041.01403462 -567.71881104 1039.89318848 C-580.08726992 1024.6706301 -591.39763708 1008.80918205 -602.28912354 992.50646973 C-602.98518707 991.46707245 -602.98518707 991.46707245 -603.6953125 990.40667725 C-635.95373961 942.15686869 -661.01701586 889.39575345 -678.97662354 834.25646973 C-679.33594971 833.15641602 -679.69527588 832.0563623 -680.06549072 830.92297363 C-692.66229118 792.02382161 -700.90894624 751.97118592 -705.71948242 711.39715576 C-705.96246759 709.37431725 -706.21936197 707.35316358 -706.47711182 705.33215332 C-709.1826697 683.47784865 -709.2893689 661.55006695 -709.34453964 639.56065369 C-709.35147275 637.24434487 -709.3631221 634.92810066 -709.3757019 632.61181641 C-709.50845139 604.24900965 -707.76635788 576.09046321 -703.66412354 548.00646973 C-703.55991089 547.27951904 -703.45569824 546.55256836 -703.34832764 545.80358887 C-694.42535526 483.74489757 -676.3017796 424.10770307 -649.97662354 367.25646973 C-649.33346191 365.85268066 -649.33346191 365.85268066 -648.67730713 364.42053223 C-624.28156405 311.26960387 -590.86636448 262.26852441 -552.78912354 218.00646973 C-552.32135498 217.45934326 -551.85358643 216.9122168 -551.37164307 216.34851074 C-540.95092104 204.31534052 -529.8122431 192.92465619 -518.5425415 181.6920166 C-516.57797153 179.73288317 -514.61890905 177.76835329 -512.66021729 175.80334473 C-506.60227885 169.7418719 -500.54270402 163.77250518 -493.97662354 158.25646973 C-492.80791891 157.23536008 -491.64125132 156.21191429 -490.47662354 155.18615723 C-459.96527421 128.5065663 -427.07828908 104.56782309 -391.97662354 84.25646973 C-391.17514893 83.79144043 -390.37367432 83.32641113 -389.5479126 82.84729004 C-383.38035009 79.27611309 -377.18741846 75.75185319 -370.97662354 72.25646973 C-370.33322021 71.8919873 -369.68981689 71.52750488 -369.0269165 71.15197754 C-299.40943629 31.92261527 -219.0189281 9.30457427 -139.97662354 0.25646973 C-138.76039307 0.10548828 -137.5441626 -0.04549316 -136.29107666 -0.2010498 C-92.08226754 -5.55671709 -44.18216418 -5.62627603 0 0 Z " fill="#0C88EF" transform="translate(708.9766235351563,2.7435302734375)"/>
<path d="M0 0 C2.91205206 0.33217324 5.82507025 0.65501701 8.73822021 0.97741699 C19.77685644 2.20398873 30.81114205 3.46900297 41.83831787 4.7947998 C42.74140182 4.90105682 43.64448578 5.00731384 44.57493591 5.11679077 C53.96397774 6.26128743 63.22010145 7.81622451 72.58441162 9.2947998 C72.58441162 63.4147998 72.58441162 117.5347998 72.58441162 173.2947998 C23.64691162 173.6697998 23.64691162 173.6697998 8.29559326 173.77282715 C3.6841243 173.81281489 3.6841243 173.81281489 -0.92732239 173.85525513 C-2.95321548 173.87273642 -4.97914178 173.88662851 -7.00508118 173.89749146 C-34.45681665 174.05124699 -63.38890326 175.72616385 -84.20855713 195.9588623 C-93.68869487 205.99270721 -99.45886348 216.36459345 -102.72808838 229.7947998 C-102.88760986 230.44585693 -103.04713135 231.09691406 -103.21148682 231.7677002 C-105.63874336 242.7184851 -105.56843123 254.09273495 -105.62091064 265.25500488 C-105.63065671 266.61826448 -105.64080368 267.98152127 -105.65131283 269.3447752 C-105.67804706 272.95317758 -105.69938708 276.56159179 -105.71950531 280.17003632 C-105.73932056 283.57212198 -105.76413988 286.97416452 -105.78851318 290.3762207 C-105.85666176 300.28654756 -105.91690548 310.1969275 -105.97808838 320.1072998 C-106.12246338 342.2791748 -106.26683838 364.4510498 -106.41558838 387.2947998 C-50.64558838 387.2947998 5.12441162 387.2947998 62.58441162 387.2947998 C60.30751747 410.06374135 60.30751747 410.06374135 58.68988037 417.61901855 C58.33482391 419.38329249 57.98254491 421.1481272 57.63275146 422.91345215 C57.45709656 423.79837341 57.28144165 424.68329468 57.10046387 425.59503174 C55.48250641 434.05950391 54.23513057 442.59515774 52.89691162 451.1072998 C52.55572833 453.26149246 52.21416564 455.41562506 51.87225342 457.56970215 C51.33423705 460.95934924 50.79643192 464.34902805 50.25978088 467.7388916 C48.93248012 476.12021686 47.59047606 484.49910377 46.24066162 492.87683105 C46.04473923 494.09310684 45.84881683 495.30938263 45.6469574 496.56251526 C44.88216095 501.30901508 44.11707167 506.0554674 43.35116577 510.80178833 C40.36865437 529.29049073 37.47560398 547.79116871 34.58441162 566.2947998 C-11.94558838 566.2947998 -58.47558838 566.2947998 -106.41558838 566.2947998 C-106.41558838 715.1247998 -106.41558838 863.9547998 -106.41558838 1017.2947998 C-116.55970863 1020.67617322 -116.55970863 1020.67617322 -121.40777588 1021.3572998 C-122.5037207 1021.5129541 -123.59966553 1021.6686084 -124.7288208 1021.82897949 C-130.61894027 1022.59930974 -136.50944029 1023.35265379 -142.40820312 1024.05334473 C-144.31352551 1024.28252334 -146.21739638 1024.52367619 -148.12115479 1024.76550293 C-191.041878 1030.05968905 -237.5571483 1030.01993891 -280.41558838 1024.2947998 C-281.53997314 1024.14630585 -281.53997314 1024.14630585 -282.68707275 1023.99481201 C-311.99062228 1020.10312184 -311.99062228 1020.10312184 -317.41558838 1018.2947998 C-317.41558838 869.1347998 -317.41558838 719.9747998 -317.41558838 566.2947998 C-370.21558838 566.2947998 -423.01558838 566.2947998 -477.41558838 566.2947998 C-477.41558838 507.2247998 -477.41558838 448.1547998 -477.41558838 387.2947998 C-424.61558838 387.2947998 -371.81558838 387.2947998 -317.41558838 387.2947998 C-317.4387915 375.38772949 -317.46199463 363.48065918 -317.48590088 351.21276855 C-317.49612696 343.64310622 -317.5058385 336.07344893 -317.51324463 328.50378418 C-317.52507963 316.50433631 -317.53893962 304.50491667 -317.56646729 292.50549316 C-317.58651205 283.76366776 -317.5993309 275.02186542 -317.60376537 266.28001767 C-317.60635413 261.65884468 -317.61236221 257.03773761 -317.62704849 252.41658592 C-317.6408084 248.05079593 -317.64477462 243.68509787 -317.64180374 239.31928825 C-317.6423458 237.73244473 -317.64621207 236.14559754 -317.65399933 234.55877304 C-317.72571182 219.16689511 -316.32073363 203.95171364 -313.60308838 188.7947998 C-313.4320459 187.83468994 -313.26100342 186.87458008 -313.08477783 185.88537598 C-304.59112708 139.78188541 -283.81774289 98.10625426 -251.41558838 64.2947998 C-250.35017822 63.16751465 -250.35017822 63.16751465 -249.26324463 62.01745605 C-223.44723072 35.35674639 -187.82163982 17.17538493 -152.41558838 7.2947998 C-151.65310791 7.07485352 -150.89062744 6.85490723 -150.1050415 6.6282959 C-102.43380905 -6.9877749 -48.88638455 -5.60036763 0 0 Z " fill="#FEFEFE" transform="translate(855.4155883789063,252.7052001953125)"/>
</svg>
