<?xml version="1.0" encoding="utf-8"?>
<!-- Generator: Adobe Illustrator 28.0.0, SVG Export Plug-In . SVG Version: 6.00 Build 0)  -->
<svg version="1.1" id="Слой_1" xmlns="http://www.w3.org/2000/svg" xmlns:xlink="http://www.w3.org/1999/xlink" x="0px" y="0px"
	 viewBox="0 0 882.9 1000" style="enable-background:new 0 0 882.9 1000;" xml:space="preserve">
<style type="text/css">
	.st0{fill:#25F4EE;}
	.st1{fill:#FE2C55;}
</style>
<path class="st0" d="M343.7,393.8v-38.9c-13.3-1.8-26.9-2.9-40.9-2.9C135.8,351.7,0,487.7,0,654.9c0,102.6,51.1,193.3,129.4,248.3
	C78.9,849.2,48,776.4,48,696.8C48,531.9,180,397.6,343.7,393.8z"/>
<path class="st0" d="M351,835.2c74.5,0,135.4-59.4,138-133.3l0.2-660.1h120.5c-2.4-13.6-3.8-27.6-3.8-41.8H441.5l-0.2,660.1
	c-2.7,73.9-63.6,133.3-138,133.3c-23.1,0-44.9-5.8-64.2-16C263.9,812.2,304.8,835.2,351,835.2z"/>
<path class="st0" d="M834.9,265.8v-36.7c-46,0-88.7-13.6-124.7-37.2C742.2,228.7,785.5,255.4,834.9,265.8z"/>
<path class="st1" d="M710.2,192C675.1,151.7,654,99.2,654,41.8h-44C621.3,104.6,658.6,158.4,710.2,192z"/>
<path class="st1" d="M303,516.3c-76.2,0-138.3,62.1-138.3,138.4c0,53.2,30.2,99.4,74.2,122.6c-16.4-22.7-26.2-50.5-26.2-80.8
	c0-76.3,62-138.4,138.3-138.4c14.2,0,28,2.4,40.9,6.5V396.4c-13.3-1.8-26.9-2.9-40.9-2.9c-2.4,0-4.7,0.2-7.1,0.2v129
	C330.8,518.8,317.2,516.3,303,516.3z"/>
<path class="st1" d="M834.9,265.8v127.9c-85.4,0-164.5-27.4-229-73.6v334.8c0,167.1-135.8,303.2-303,303.2
	c-64.5,0-124.5-20.5-173.6-55c55.3,59.4,134.3,96.8,221.6,96.8c166.9,0,303-135.9,303-303.2V362c64.5,46.3,143.6,73.6,229,73.6V271
	C866.2,271,850.2,269.2,834.9,265.8z"/>
<path d="M605.9,654.9V320.1c64.5,46.3,143.6,73.6,229,73.6V265.8c-49.3-10.5-92.7-37.2-124.7-73.9c-51.6-33.6-88.7-87.4-100.5-150.2
	H489.3L489,701.9c-2.7,73.9-63.6,133.3-138,133.3c-46.2,0-86.9-22.9-112.3-57.6c-44-23.4-74.2-69.4-74.2-122.6
	c0-76.3,62-138.4,138.3-138.4c14.2,0,28,2.4,40.9,6.5V394C180.1,397.5,48,531.9,48,696.8c0,79.6,30.9,152.2,81.4,206.5
	c49.1,34.5,109.1,55,173.6,55C469.9,958.2,605.9,822,605.9,654.9z"/>
</svg>
