<?xml version="1.0" encoding="UTF-8"?>
<svg version="1.1" xmlns="http://www.w3.org/2000/svg" width="600" height="600">
<path d="M0 0 C198 0 396 0 600 0 C600 198 600 396 600 600 C402 600 204 600 0 600 C0 402 0 204 0 0 Z " fill="#33CBFE" transform="translate(0,0)"/>
<path d="M0 0 C198 0 396 0 600 0 C600 198 600 396 600 600 C402 600 204 600 0 600 C0 402 0 204 0 0 Z M81.1875 37.6875 C80.48794189 38.03071289 79.78838379 38.37392578 79.06762695 38.72753906 C57.65103838 49.59661118 42.10448413 68.32313615 33.75098383 90.64760059 C30.30029193 101.456629 29.5647896 111.9048867 29.61904907 123.16075134 C29.61558439 124.74607033 29.61081442 126.3313869 29.60486734 127.91669852 C29.59243879 132.23437958 29.59849025 136.55185962 29.60782599 140.86954105 C29.61464989 145.54107714 29.60411875 150.21258011 29.59588623 154.8841095 C29.58258186 164.02067079 29.585412 173.15715794 29.59412415 182.29372209 C29.60091371 189.72318562 29.60181192 197.15262845 29.5985527 204.58209419 C29.598093 205.64160521 29.59763331 206.70111622 29.59715968 207.79273363 C29.59620045 209.94547419 29.59522781 212.09821474 29.5942419 214.25095529 C29.58569755 234.41356998 29.59550692 254.57614369 29.611643 274.73875166 C29.62504336 292.01750535 29.62271855 309.29619857 29.60888672 326.57495117 C29.59281067 346.66644506 29.58652348 366.75790306 29.59572351 386.84940249 C29.5966791 388.99429833 29.59762221 391.13919419 29.5985527 393.28409004 C29.59901553 394.33926788 29.59947836 395.39444571 29.59995521 396.48159863 C29.60253917 403.8966507 29.5981869 411.31167991 29.59111404 418.72672844 C29.58267623 427.77113591 29.58502691 436.81546533 29.60095628 445.85986393 C29.60880867 450.46934468 29.61198269 455.07869558 29.60200882 459.6881752 C29.59299803 463.91670827 29.59809859 468.14499244 29.61394148 472.37350328 C29.61726251 473.89420052 29.61565644 475.41491927 29.60831411 476.93560242 C29.55034118 489.95216361 30.93721707 502.63709686 36.1875 514.6875 C36.49010742 515.39608154 36.79271484 516.10466309 37.10449219 516.8347168 C42.30673886 528.59834368 50.06715758 537.92158533 59 547 C59.63292969 547.65742187 60.26585938 548.31484375 60.91796875 548.9921875 C74.69362978 562.19006142 95.93952624 570.10499783 114.81371212 570.13422108 C115.46533098 570.13657331 116.11694984 570.13892554 116.78831473 570.14134905 C118.96297378 570.14798454 121.13757233 570.14758249 123.3122406 570.14717102 C124.89080316 570.15047305 126.46936488 570.15419933 128.04792553 570.1583125 C132.3794259 570.16830208 136.71091241 570.17204438 141.04242265 570.17470181 C145.71682023 570.1786139 150.39120693 570.18819157 155.06559753 570.19691467 C166.35095115 570.21665323 177.63630564 570.22674184 188.9216722 570.23564246 C194.24078704 570.24002951 199.5599009 570.24539523 204.87901497 570.25063133 C222.56869901 570.26764076 240.25838243 570.28213406 257.94807339 570.28938007 C262.53593891 570.29128985 267.12380442 570.2932102 271.71166992 570.29516602 C272.85191052 570.29564976 273.99215111 570.2961335 275.16694445 570.2966319 C293.63058752 570.30492901 312.09416574 570.33026184 330.5577805 570.36274669 C349.52872884 570.39585112 368.49964427 570.41383188 387.47062165 570.41702431 C398.11613588 570.41918624 408.76155553 570.42788841 419.40704155 570.45348549 C428.47464924 570.4752387 437.54213935 570.4832202 446.60977017 570.47351871 C451.23152607 570.46898744 455.85303962 570.47079162 460.47476196 570.49028015 C464.71600991 570.50800893 468.95684044 570.50683623 473.19809342 570.49138286 C474.72239001 570.48902143 476.24671626 570.49325316 477.77096777 570.50521151 C503.63065592 570.69532277 526.56420513 561.12332377 545 543 C545.69867187 542.31421875 546.39734375 541.6284375 547.1171875 540.921875 C563.83086072 523.36276306 570.66089541 498.28905914 570.50793457 474.61219788 C570.51255667 473.02657564 570.51891828 471.4409577 570.52684355 469.85534853 C570.54338074 465.54599475 570.53536255 461.23700005 570.52289867 456.9276458 C570.51378573 452.26154979 570.52784869 447.5955122 570.53881836 442.9294281 C570.5565424 433.80715665 570.55279085 424.68501735 570.5411678 415.56274087 C570.53210902 408.14382573 570.53092002 400.72494745 570.53526306 393.30602837 C570.53618246 391.71803448 570.53618246 391.71803448 570.53712043 390.09795992 C570.53839942 387.94683388 570.53969628 385.79570786 570.5410108 383.64458185 C570.55239883 363.50477616 570.53933111 343.36504347 570.51780933 323.22524976 C570.49994258 305.97215145 570.50304245 288.71916082 570.52148438 271.46606445 C570.54292701 251.3965029 570.55129764 231.32700524 570.53903532 211.25743383 C570.53776122 209.11421836 570.53650374 206.97100289 570.53526306 204.8277874 C570.53464596 203.77348097 570.53402886 202.71917453 570.53339306 201.63291942 C570.52995013 194.22979763 570.53574567 186.82671662 570.54518127 179.42360115 C570.55644052 170.39172002 570.55327918 161.3599778 570.5320583 152.32811243 C570.52160009 147.72643701 570.51733593 143.12499257 570.53065491 138.52331924 C570.54269427 134.29962567 570.53582923 130.07637419 570.5147447 125.85271996 C570.51032692 124.33608647 570.51243418 122.81941455 570.52224785 121.30280638 C570.60455286 107.51041118 568.59480931 93.64232755 562.3125 81.1875 C561.79876831 80.13925049 561.79876831 80.13925049 561.2746582 79.06982422 C548.98544769 54.83609038 527.67386394 40.22688456 502.47265625 31.9453125 C496.71029137 30.37670474 491.13133805 29.87498372 485.17346382 29.86577892 C484.52045618 29.86342669 483.86744854 29.86107446 483.1946528 29.85865095 C481.0152597 29.85201522 478.83592696 29.85241752 476.65652466 29.85282898 C475.07454999 29.84952696 473.49257617 29.84580068 471.9106034 29.8416875 C467.56963208 29.83169771 463.22867459 29.82795558 458.88769341 29.82529819 C454.20305167 29.82138613 449.51842079 29.81180842 444.83378601 29.80308533 C433.52321363 29.78334608 422.21264038 29.7732578 410.90205508 29.76435754 C405.57061665 29.75997037 400.2391792 29.75460466 394.90774155 29.74936867 C377.17602558 29.73235872 359.44431023 29.71786574 341.71258736 29.71061993 C337.1137301 29.70871015 332.51487286 29.7067898 327.91601562 29.70483398 C326.77304673 29.70435024 325.63007783 29.7038665 324.45247351 29.7033681 C305.94747364 29.69507221 287.44253851 29.66974168 268.93756689 29.63725331 C249.92254323 29.60414267 230.90755243 29.58616754 211.8924998 29.58297569 C201.22292049 29.58081427 190.55343558 29.57211967 179.88388443 29.54651451 C170.79507868 29.52475275 161.70639026 29.51678395 152.61756141 29.52648129 C147.98555547 29.53101018 143.35379133 29.52922244 138.72181892 29.50971985 C134.47003336 29.4919737 130.21866396 29.49317754 125.96687327 29.50861714 C124.43986712 29.51097599 122.91283127 29.50676067 121.38587023 29.49478849 C107.55306304 29.39316958 93.68401285 31.38336156 81.1875 37.6875 Z " fill="#FEFEFF" transform="translate(0,0)"/>
<path d="M0 0 C33.52219599 -1.0971903 64.9154716 7.39465538 90.34375 30.09423828 C91.60251953 31.17318359 91.60251953 31.17318359 92.88671875 32.27392578 C107.7864694 45.25634418 120.41597798 61.39427394 127.34375 80.09423828 C127.70243164 81.04967529 127.70243164 81.04967529 128.06835938 82.02441406 C136.46621459 104.703807 139.26625318 128.17394939 134.34375 152.09423828 C134.18777344 152.88008301 134.03179687 153.66592773 133.87109375 154.47558594 C131.43395334 166.52363467 128.17877515 177.27159827 122.34375 188.09423828 C122.0250293 188.69848633 121.70630859 189.30273438 121.37792969 189.92529297 C117.12179051 197.95806611 112.35107658 205.23793352 106.34375 212.09423828 C105.50972656 213.06103516 104.67570312 214.02783203 103.81640625 215.02392578 C90.04202488 230.71197303 73.55720808 241.97224278 54.34375 250.03173828 C53.51568848 250.38502197 52.68762695 250.73830566 51.83447266 251.10229492 C34.26431176 258.11658271 17.41097222 258.62244322 -1.28125 258.34423828 C-3.65623477 258.32412229 -6.03123618 258.30588063 -8.40625 258.28955078 C-14.15662053 258.24600716 -19.9063545 258.17950785 -25.65625 258.09423828 C-25.9860083 257.27802002 -26.3157666 256.46180176 -26.65551758 255.62084961 C-27.09532959 254.54601318 -27.5351416 253.47117676 -27.98828125 252.36376953 C-28.42116455 251.30005127 -28.85404785 250.23633301 -29.30004883 249.14038086 C-33.54058031 239.61578836 -41.00163509 233.53576885 -50.40625 229.21923828 C-60.39058424 225.76312258 -71.33028925 225.78379605 -81.08984375 229.83251953 C-88.42399689 233.43819908 -93.63611302 237.65816523 -98.65625 244.09423828 C-113.33614143 242.17250704 -130.41874135 224.42545479 -139.16015625 213.15527344 C-144.10776217 206.44089136 -148.59105703 199.87821518 -151.65625 192.09423828 C-150.26212891 191.45808594 -150.26212891 191.45808594 -148.83984375 190.80908203 C-135.63655036 184.62589355 -129.23275412 177.81495886 -123.65625 164.09423828 C-122.49023415 158.81389478 -122.48880242 153.60666413 -122.4453125 148.22705078 C-122.41721165 146.26870955 -122.38854704 144.31037635 -122.359375 142.35205078 C-122.31844241 139.30062369 -122.28151269 136.24934105 -122.25488281 133.19775391 C-121.90345301 96.04314048 -110.31326605 65.27899259 -84.65625 38.09423828 C-83.97175781 37.34529297 -83.28726563 36.59634766 -82.58203125 35.82470703 C-63.42012533 15.60021853 -34.43826798 1.55236166 -6.53125 0.19189453 C-4.35391852 0.13702227 -2.17665338 0.07722318 0 0 Z " fill="#FDFDFD" transform="translate(308.65625,154.90576171875)"/>
<path d="M0 0 C1.12148438 0.19464844 2.24296875 0.38929688 3.3984375 0.58984375 C29.34441277 5.60685727 51.98883994 16.81394489 72 34 C72.8559375 34.7321875 73.711875 35.464375 74.59375 36.21875 C101.93122558 60.18122859 119.28959755 94.99276874 122.26611328 131.24072266 C124.36886428 170.1972599 112.67904178 210.02583491 86.43896484 239.42773438 C77.13720264 249.59118002 67.76951972 258.74481661 56 266 C56.15855469 266.63679688 56.31710937 267.27359375 56.48046875 267.9296875 C58.33573342 278.89388324 58.30208395 291.05652791 53 301 C52.57589844 301.79664063 52.15179688 302.59328125 51.71484375 303.4140625 C46.21527558 312.57490307 38.09604362 317.89095346 28 321 C17.82410711 323.48558695 7.31687375 322.86723853 -2 318 C-11.94646107 311.83734515 -18.59653715 303.18280651 -22 292 C-22 291.34 -22 290.68 -22 290 C-33.55 290 -45.1 290 -57 290 C-57.33 292.31 -57.66 294.62 -58 297 C-62.5517352 307.44221604 -70.6244658 315.43993426 -81 320 C-90.34369692 323.38306268 -101.17795477 323.52483342 -110.4375 319.875 C-121.77603645 314.41064508 -129.53177139 306.48831478 -134.5 294.75 C-136.74915015 287.95322609 -136.34361775 281.07279864 -136 274 C-136.84175781 273.76410156 -137.68351562 273.52820313 -138.55078125 273.28515625 C-142.53252438 271.80158491 -145.69732301 269.82377974 -149.1875 267.4375 C-149.84459961 266.99204834 -150.50169922 266.54659668 -151.17871094 266.08764648 C-172.08921386 251.72886349 -191.0576814 232.21429042 -200 208 C-200.36328125 204.54296875 -200.36328125 204.54296875 -200.3125 201.1875 C-200.30863281 200.06730469 -200.30476562 198.94710937 -200.30078125 197.79296875 C-200 195 -200 195 -198 193 C-196.13712761 192.63888935 -194.25811569 192.35860169 -192.375 192.125 C-184.15266855 190.83657246 -178.79363579 188.50323456 -173.32421875 182.171875 C-169.60630525 176.07405816 -168.55390953 170.38672134 -168.5234375 163.3984375 C-168.50006821 162.20004745 -168.50006821 162.20004745 -168.47622681 160.97744751 C-168.42914222 158.44330868 -168.40115314 155.90943316 -168.375 153.375 C-167.91387166 122.02434044 -167.91387166 122.02434044 -164.6875 109.1875 C-164.48705078 108.32447266 -164.28660156 107.46144531 -164.08007812 106.57226562 C-162.8371786 101.46598799 -161.19749923 96.80547327 -158.9453125 92.05615234 C-157.9468352 89.88436108 -157.12257376 87.68560582 -156.3125 85.4375 C-149.38151822 68.02882311 -137.90858252 53.36968174 -125 40 C-124.45996338 39.43659912 -123.91992676 38.87319824 -123.36352539 38.29272461 C-108.68299845 23.25428655 -89.99275883 12.24452493 -70 6 C-68.43690074 5.46006508 -66.87432701 4.9186041 -65.3125 4.375 C-43.86568522 -2.60309966 -22.21382978 -3.98645478 0 0 Z M-95 36 C-96.010625 36.71542969 -97.02125 37.43085938 -98.0625 38.16796875 C-126.4058881 58.77782667 -144.10279595 87.82877315 -151 122 C-151.17708496 122.86149658 -151.35416992 123.72299316 -151.53662109 124.6105957 C-152.15449554 129.13006408 -152.19485324 133.5917642 -152.24609375 138.1484375 C-152.27902909 140.14323361 -152.31224079 142.13802516 -152.34570312 144.1328125 C-152.39306373 147.25517708 -152.43753173 150.37752282 -152.47680664 153.5 C-152.51672261 156.52883365 -152.5682103 159.55730627 -152.62109375 162.5859375 C-152.6295079 163.51014496 -152.63792206 164.43435242 -152.64659119 165.38656616 C-152.86297296 176.84098567 -156.23433915 188.083504 -164 196.8125 C-169.08404752 201.49305168 -175.77622814 204.16002644 -182 207 C-172.94907802 227.419763 -157.4491777 242.81897484 -139 255 C-138.38463379 255.40734375 -137.76926758 255.8146875 -137.13525391 256.234375 C-133.68108594 258.40529974 -133.68108594 258.40529974 -129.7265625 258.94921875 C-127.67725552 257.82256355 -126.73881389 256.70761562 -125.375 254.8125 C-119.9458722 248.15258756 -111.43271417 243.57781916 -103 242 C-89.63388109 240.96297353 -78.55758725 243.7072204 -67.8125 251.9375 C-61.94185942 257.31892053 -58.48224154 265.55327537 -56 273 C-49.06653766 273.10282159 -42.13327721 273.17205014 -35.19921875 273.21972656 C-32.84855809 273.23963653 -30.49794559 273.26677447 -28.14746094 273.30175781 C-9.50850554 273.5718876 6.88498391 272.2499251 24.1875 264.8125 C25.10821289 264.42521729 26.02892578 264.03793457 26.97753906 263.63891602 C39.14227492 258.38499757 49.97910633 251.70943444 60 243 C60.83015625 242.29101562 61.6603125 241.58203125 62.515625 240.8515625 C77.72977999 227.55084418 88.15381492 212.31039912 96.17382812 193.88745117 C96.93989587 192.13731237 97.74757489 190.40554829 98.55859375 188.67578125 C100.41865593 183.93237065 101.52796425 179.15463409 102.625 174.1875 C102.94984375 172.78661133 102.94984375 172.78661133 103.28125 171.35742188 C110.54270571 139.06187351 105.15978983 105.37535515 87.99609375 77.0703125 C68.04119246 46.37647216 38.76986871 24.45934093 2.81616211 16.45117188 C-30.10871161 10.06438024 -67.61792436 16.31913314 -95 36 Z " fill="#020304" transform="translate(339,140)"/>
<path d="M0 0 C3.91443268 0.73395613 5.2335977 1.65777758 8 4.5625 C10.11953982 7.82714185 12.04739111 11.19631228 14 14.5625 C19.41377728 22.87651511 29.760906 28.67731927 39.25 31.1484375 C53.54915692 33.30143556 66.60935175 31.11679845 79 23.5625 C83.4638282 20.21173026 86.57608675 16.75564861 89.625 12.0625 C95.2684467 3.55786529 95.2684467 3.55786529 98 0.5625 C102.12477419 -0.11246305 104.24562906 0.16123886 107.9375 2.125 C110.05507426 4.62758776 110.86729402 6.08205931 110.60546875 9.38671875 C106.80744227 23.03511069 95.40959383 33.56836598 83.64453125 40.58203125 C69.05594505 48.7971531 51.45344805 51.29184774 34.984375 47.87890625 C18.13473234 42.97460205 5.73092216 32.93096959 -4 18.5625 C-4.47824219 17.86511719 -4.95648438 17.16773438 -5.44921875 16.44921875 C-7.78649152 12.7505871 -8.84887162 9.90117719 -8 5.5625 C-5.53959272 2.23371368 -4.10389613 0.76948052 0 0 Z " fill="#050505" transform="translate(281,299.4375)"/>
<path d="M0 0 C4.53883817 2.07170455 8.93268495 4.5561148 10.9375 9.31640625 C11.81987508 14.54329988 12.24014842 19.78443731 9.7578125 24.609375 C8.26920331 26.41807373 6.76716419 27.85880296 4.9375 29.31640625 C4.174375 29.95578125 3.41125 30.59515625 2.625 31.25390625 C-1.32360197 32.81498145 -4.8769952 32.98934077 -9.0625 32.31640625 C-14.37646692 29.5090275 -18.68467926 25.90530116 -21.0625 20.31640625 C-21.77825914 15.73887685 -21.51757127 12.22654879 -19.4375 8.06640625 C-14.03707977 1.81328809 -8.72509883 -2.89184147 0 0 Z " fill="#060606" transform="translate(385.0625,235.68359375)"/>
<path d="M0 0 C1.03769531 -0.02578125 2.07539063 -0.0515625 3.14453125 -0.078125 C7.27698104 0.36747934 9.80584618 1.87881325 12.734375 4.78515625 C16.66735584 9.77799881 17.84395372 12.8644956 17.1875 19.25 C15.24282908 24.46990616 12.1444072 28.49911913 7.30078125 31.3671875 C3.63442633 32.89878863 0.08433371 32.79311271 -3.8125 32.25 C-7.0625 30.625 -7.0625 30.625 -9.8125 28.25 C-10.76125 27.445625 -11.71 26.64125 -12.6875 25.8125 C-15.78019626 21.84050774 -15.61185745 17.31294692 -15.4453125 12.4609375 C-14.44860856 7.40358787 -11.75670332 4.42677914 -7.8125 1.25 C-5.13594199 -0.08827901 -2.98815948 0.04421444 0 0 Z " fill="#050606" transform="translate(282.8125,235.75)"/>
</svg>
